<svg version="1.1" id="Layer_1" xmlns="http://www.w3.org/2000/svg" xmlns:xlink="http://www.w3.org/1999/xlink" x="0px" y="0px"
	 width="50px" height="50px" viewBox="0 0 45.5 46.25" enable-background="new 0 0 45.5 46.25" xml:space="preserve">
<path fill="#7f8b95" stroke="#231F20" stroke-miterlimit="10" d="M23.167,1.25"/>
<path fill="#7f8b95" d="M23.167,43.249c-5.96,1.788-16.833-6.5-16.833-6.5l-3.167,2.5V29.083l9.167,0.499
	c0,0-3.667,0.667-3.333,3.334s10.117,4.833,10.117,4.833v-15h-4.782l-0.668-6.167h5.45V12.37c-2.383-1.712-1.95-4.954-1.95-4.954
	c0-3.313,2.687-6,6-6c3.312,0,6,2.687,6,6c0,0-0.9,5.242-1.95,4.954v4.212h5.449l-0.668,6.167h-4.781v15
	c0,0,9.783-2.166,10.117-4.833C37.666,30.249,34,29.582,34,29.582l9.166-0.499v10.166L40,36.749C40,36.749,29,45.415,23.167,43.249"
	/>
</svg>
